<svg width="30" height="18" viewBox="0 0 30 18" fill="none" xmlns="http://www.w3.org/2000/svg">
<path d="M29.32 1.22988C29.0062 2.23263 28.5472 3.18398 27.9575 4.05363L27.9813 4.01613C27.4213 4.94946 26.7525 6.0278 25.975 7.25113C25.3084 8.21696 24.9555 8.71696 24.9163 8.75113C24.7381 8.97424 24.6229 9.24096 24.5825 9.52363L24.5813 9.53238C24.6131 9.78707 24.7314 10.0231 24.9163 10.2011L25.4163 10.7586C28.0913 13.5078 29.5959 15.4028 29.93 16.4436C29.9934 16.6146 30.0138 16.7985 29.9894 16.9792C29.965 17.1599 29.8965 17.3319 29.79 17.4799L29.7925 17.4761C29.6667 17.6059 29.5133 17.7058 29.3437 17.7683C29.174 17.8309 28.9925 17.8545 28.8125 17.8374H28.8175H25.5225C25.1013 17.8374 24.7138 17.6899 24.41 17.4449L24.4138 17.4474C23.9801 17.0918 23.582 16.6949 23.225 16.2624L23.2138 16.2474C22.6379 15.5965 22.1271 15.0486 21.6813 14.6036C20.1963 13.192 19.1005 12.4861 18.3938 12.4861C18.1657 12.4657 17.9376 12.5254 17.7488 12.6549L17.7525 12.6524C17.6714 12.7541 17.6118 12.8713 17.5774 12.9968C17.5431 13.1223 17.5346 13.2535 17.5525 13.3824V13.3774C17.504 13.9606 17.4881 14.5461 17.505 15.1311V15.1099V16.5586C17.5405 16.7317 17.5284 16.9111 17.4698 17.0778C17.4112 17.2444 17.3085 17.3921 17.1725 17.5049L17.1713 17.5061C16.5383 17.7921 15.8414 17.9072 15.15 17.8399L15.1663 17.8411C13.274 17.8087 11.4265 17.2607 9.82253 16.2561L9.86628 16.2811C8.01677 15.1661 6.43149 13.6627 5.22003 11.8749L5.18628 11.8224C4.01033 10.2542 2.97665 8.58427 2.09753 6.83238L2.01003 6.63988C1.42423 5.50543 0.909493 4.33568 0.468784 3.13738L0.393784 2.90613C0.189453 2.28405 0.059384 1.64 0.00628418 0.987383L0.00378418 0.956133C0.00378418 0.324466 0.375451 0.00863307 1.11878 0.00863307H4.40628C4.73864 -0.0173979 5.06857 0.083054 5.33003 0.289883L5.32753 0.287383C5.57753 0.561133 5.76253 0.897382 5.85378 1.27238L5.85753 1.28738C6.40065 2.84278 7.0639 4.35358 7.84128 5.80613L7.75753 5.63488C8.3194 6.77616 8.99936 7.8554 9.78628 8.85488L9.75753 8.81613C10.4242 9.63446 10.9442 10.0436 11.3175 10.0436L11.3575 10.0449C11.4454 10.045 11.5318 10.022 11.608 9.97808C11.6841 9.93419 11.7473 9.871 11.7913 9.79488L11.7925 9.79238C11.9122 9.47908 11.9596 9.14281 11.9313 8.80863V8.81613V3.96738C11.9079 3.41763 11.7718 2.87855 11.5313 2.38363L11.5413 2.40738C11.3955 2.09284 11.2061 1.80039 10.9788 1.53863L10.9825 1.54363C10.7729 1.33437 10.6366 1.06296 10.5938 0.769883L10.5925 0.762383C10.5925 0.549883 10.69 0.358633 10.8425 0.233633L10.8438 0.232383C11.0007 0.0886562 11.206 0.00922891 11.4188 0.00988297H16.6113C16.7416 -0.00532883 16.8737 0.0120629 16.9957 0.0604974C17.1176 0.108932 17.2256 0.186894 17.31 0.287383L17.3113 0.288633C17.4692 0.580352 17.5382 0.911884 17.51 1.24238V1.23613V7.70238C17.4901 7.95742 17.5495 8.21238 17.68 8.43238L17.6775 8.42738C17.7233 8.4958 17.7852 8.55188 17.8578 8.59069C17.9304 8.6295 18.0115 8.64982 18.0938 8.64988H18.095C18.3058 8.63618 18.5091 8.56626 18.6838 8.44738L18.68 8.44988C19.02 8.21613 19.3125 7.94988 19.5663 7.64863L19.5713 7.64238C20.3435 6.7686 21.0359 5.82733 21.64 4.82988L21.6888 4.74238C22.1188 4.02988 22.5838 3.15238 23.005 2.25113L23.0825 2.06738L23.64 0.952382C23.7382 0.664089 23.9275 0.415583 24.1794 0.244419C24.4313 0.0732548 24.7321 -0.0112648 25.0363 0.00363283H25.0325H28.3213C29.2096 0.00363283 29.543 0.412383 29.3213 1.22988H29.32Z" fill="#F7931E"/>
</svg>
